<svg width="20" height="20" viewBox="0 0 56 56" fill="none" xmlns="http://www.w3.org/2000/svg">
<path d="M46.76 15.9126L33.32 6.50926C29.6567 3.9426 24.0333 4.0826 20.51 6.8126L8.81998 15.9359C6.48664 17.7559 4.64331 21.4893 4.64331 24.4293V40.5293C4.64331 46.4793 9.47331 51.3326 15.4233 51.3326H40.5767C46.5267 51.3326 51.3567 46.5026 51.3567 40.5526V24.7326C51.3567 21.5826 49.3267 17.7093 46.76 15.9126Z" fill="white" fill-opacity="0.9"/>
<path d="M39.3867 31.266C39.3867 32.176 38.6633 32.8993 37.7533 32.8993C36.8433 32.8993 36.12 32.176 36.12 31.266V30.846L29.7733 37.1926C29.4233 37.5426 28.9567 37.706 28.4667 37.6593C28 37.6126 27.5567 37.3326 27.3 36.936L24.92 33.3893L19.3666 38.9426C19.04 39.2693 18.6433 39.4093 18.2233 39.4093C17.8033 39.4093 17.3833 39.246 17.08 38.9426C16.45 38.3126 16.45 37.286 17.08 36.6326L24.0333 29.6793C24.3833 29.3293 24.85 29.166 25.34 29.2126C25.83 29.2593 26.2733 29.516 26.53 29.936L28.91 33.4826L33.8333 28.5593H33.4133C32.5033 28.5593 31.78 27.836 31.78 26.926C31.78 26.016 32.5033 25.2926 33.4133 25.2926H37.7533C37.9633 25.2926 38.1733 25.3393 38.3833 25.4093C38.78 25.5726 39.1067 25.8993 39.27 26.296C39.3633 26.506 39.3867 26.716 39.3867 26.926V31.266Z" fill="white"/>
</svg>
