<svg width="190" height="56" viewBox="0 0 190 56" fill="none" xmlns="http://www.w3.org/2000/svg">
<g clip-path="url(#clip0_112_2056)">
<mask id="mask0_112_2056" style="mask-type:luminance" maskUnits="userSpaceOnUse" x="0" y="0" width="56" height="56">
<path d="M56 0H0V56H56V0Z" fill="white"/>
</mask>
<g mask="url(#mask0_112_2056)">
<path d="M46.76 15.9126L33.32 6.50926C29.6567 3.9426 24.0333 4.0826 20.51 6.8126L8.81998 15.9359C6.48664 17.7559 4.64331 21.4893 4.64331 24.4293V40.5293C4.64331 46.4793 9.47331 51.3326 15.4233 51.3326H40.5767C46.5267 51.3326 51.3567 46.5026 51.3567 40.5526V24.7326C51.3567 21.5826 49.3267 17.7093 46.76 15.9126ZM39.3867 31.266C39.3867 32.176 38.6633 32.8993 37.7533 32.8993C36.8433 32.8993 36.12 32.176 36.12 31.266V30.846L29.7733 37.1926C29.4233 37.5426 28.9567 37.706 28.4667 37.6593C28 37.6126 27.5567 37.3326 27.3 36.936L24.92 33.3893L19.3666 38.9426C19.04 39.2693 18.6433 39.4093 18.2233 39.4093C17.8033 39.4093 17.3833 39.246 17.08 38.9426C16.45 38.3126 16.45 37.286 17.08 36.6326L24.0333 29.6793C24.3833 29.3293 24.85 29.166 25.34 29.2126C25.83 29.2593 26.2733 29.516 26.53 29.936L28.91 33.4826L33.8333 28.5593H33.4133C32.5033 28.5593 31.78 27.836 31.78 26.926C31.78 26.016 32.5033 25.2926 33.4133 25.2926H37.7533C37.9633 25.2926 38.1733 25.3393 38.3833 25.4093C38.78 25.5726 39.1067 25.8993 39.27 26.296C39.3633 26.506 39.3867 26.716 39.3867 26.926V31.266Z" fill="#0B61FA"/>
<path d="M39.3867 31.266C39.3867 32.176 38.6633 32.8993 37.7533 32.8993C36.8433 32.8993 36.12 32.176 36.12 31.266V30.846L29.7733 37.1926C29.4233 37.5426 28.9567 37.706 28.4667 37.6593C28 37.6126 27.5567 37.3326 27.3 36.936L24.92 33.3893L19.3666 38.9426C19.04 39.2693 18.6433 39.4093 18.2233 39.4093C17.8033 39.4093 17.3833 39.246 17.08 38.9426C16.45 38.3126 16.45 37.286 17.08 36.6326L24.0333 29.6793C24.3833 29.3293 24.85 29.166 25.34 29.2126C25.83 29.2593 26.2733 29.516 26.53 29.936L28.91 33.4826L33.8333 28.5593H33.4133C32.5033 28.5593 31.78 27.836 31.78 26.926C31.78 26.016 32.5033 25.2926 33.4133 25.2926H37.7533C37.9633 25.2926 38.1733 25.3393 38.3833 25.4093C38.78 25.5726 39.1067 25.8993 39.27 26.296C39.3633 26.506 39.3867 26.716 39.3867 26.926V31.266Z" fill="#0B61FA"/>
<g clip-path="url(#clip1_112_2056)">
<mask id="mask1_112_2056" style="mask-type:luminance" maskUnits="userSpaceOnUse" x="6" y="9" width="44" height="44">
<path d="M50 9H6V53H50V9Z" fill="white"/>
</mask>
<g mask="url(#mask1_112_2056)">
<path d="M27.938 4.00006C15.7939 4.03429 5.96577 13.918 6 26.062C6.03423 38.2059 15.918 48.0341 28.062 47.9999C40.2059 47.9656 50.0341 38.0819 49.9999 25.938C49.9656 13.794 40.1039 3.96577 27.938 4.00006ZM39.9734 35.7123C37.2784 39.6139 32.8409 41.9364 28.1109 41.9497C23.3809 41.963 18.9304 39.6656 16.2134 35.7792C15.6833 35.0327 15.8784 33.9982 16.625 33.4901C17.3715 32.96 18.406 33.155 18.9141 33.9016C21.0126 36.8877 24.4497 38.682 28.1017 38.6717C31.7537 38.6614 35.1806 36.8698 37.2621 33.8499C37.788 33.1004 38.7995 32.9216 39.5489 33.4254C40.3204 33.9293 40.4993 34.9628 39.9734 35.7123Z" fill="#0B61FA"/>
<path d="M39.9734 35.7123C37.2784 39.6139 32.8409 41.9364 28.1109 41.9497C23.3809 41.963 18.9304 39.6656 16.2134 35.7792C15.6833 35.0327 15.8784 33.9982 16.625 33.4901C17.3715 32.96 18.406 33.155 18.9141 33.9016C21.0126 36.8877 24.4497 38.682 28.1017 38.6717C31.7537 38.6614 35.1806 36.8698 37.2621 33.8499C37.788 33.1004 38.7995 32.9216 39.5489 33.4254C40.3204 33.9293 40.4993 34.9628 39.9734 35.7123Z" fill="white"/>
</g>
</g>
</g>
</g>
<path d="M67.1377 25.9338C66.0918 25.9338 65.4766 25.294 65.4766 24.1988V10.0977C65.4766 8.5965 66.3625 7.69825 67.876 7.69825C69.168 7.69825 69.8816 8.23966 70.423 9.61779L74.8281 20.532H74.9266L79.3193 9.61779C79.8607 8.25196 80.5867 7.69825 81.891 7.69825C83.3922 7.69825 84.2781 8.58419 84.2781 10.0977V24.1988C84.2781 25.294 83.6629 25.9338 82.617 25.9338C81.5711 25.9338 80.9682 25.294 80.9682 24.1988V13.7152H80.8697L76.477 24.4572C76.157 25.2447 75.6648 25.5893 74.8896 25.5893C74.1021 25.5893 73.5854 25.2324 73.2777 24.4695L68.885 13.7152H68.7865V24.1988C68.7865 25.294 68.1836 25.9338 67.1377 25.9338ZM89.0893 25.9338C87.9203 25.9338 87.2313 25.2201 87.2313 24.002V9.64239C87.2313 8.41193 87.9203 7.69825 89.0893 7.69825C90.2582 7.69825 90.9473 8.41193 90.9473 9.64239V24.002C90.9473 25.2201 90.2582 25.9338 89.0893 25.9338ZM101.898 25.9953C96.5951 25.9953 93.3467 22.5377 93.3467 16.7668C93.3467 11.082 96.5951 7.63673 101.812 7.63673C105.221 7.63673 107.891 9.23634 108.888 11.4143C109.097 11.8449 109.158 12.2018 109.158 12.5586C109.158 13.5061 108.506 14.1582 107.534 14.1582C106.746 14.1582 106.193 13.826 105.738 13.0754C104.864 11.4881 103.572 10.7129 101.825 10.7129C98.8961 10.7129 97.1365 12.9401 97.1365 16.7176C97.1365 20.569 99.0068 22.9192 101.96 22.9192C104.384 22.9192 106.07 21.4303 106.144 19.2277L106.156 18.9447H103.572C102.686 18.9447 102.083 18.4402 102.083 17.5912C102.083 16.7422 102.674 16.2377 103.572 16.2377H107.915C109.084 16.2377 109.773 16.9514 109.773 18.1695V18.4402C109.773 22.9561 106.906 25.9953 101.898 25.9953Z" fill="#0E0E14"/>
<path d="M71.5797 48.5338C70.4107 48.5338 69.7217 47.8201 69.7217 46.6019V33.6205H66.0549C65.0459 33.6205 64.3691 33.0422 64.3691 32.0824C64.3691 31.1226 65.0336 30.5443 66.0549 30.5443H77.1168C78.1258 30.5443 78.7902 31.1226 78.7902 32.0824C78.7902 33.0422 78.1135 33.6205 77.1168 33.6205H73.4377V46.6019C73.4377 47.8201 72.7486 48.5338 71.5797 48.5338ZM82.4939 48.3C81.325 48.3 80.6359 47.5863 80.6359 46.3558V32.4762C80.6359 31.258 81.325 30.5443 82.4939 30.5443H90.935C91.9563 30.5443 92.6207 31.1226 92.6207 32.0824C92.6207 33.0422 91.9439 33.6205 90.935 33.6205H84.352V37.8902H90.615C91.5379 37.8902 92.1654 38.4316 92.1654 39.3176C92.1654 40.2035 91.5502 40.7449 90.615 40.7449H84.352V45.2238H90.935C91.9439 45.2238 92.6207 45.8021 92.6207 46.7619C92.6207 47.7217 91.9563 48.3 90.935 48.3H82.4939ZM96.8658 48.5338C95.7461 48.5338 95.0816 47.857 95.0816 46.6758V32.1562C95.0816 30.975 95.7707 30.2982 96.952 30.2982C97.7148 30.2982 98.2316 30.6058 98.7977 31.381L106.476 42.1107H106.574V32.1685C106.574 30.975 107.239 30.2982 108.358 30.2982C109.478 30.2982 110.13 30.975 110.13 32.1685V46.725C110.13 47.8816 109.478 48.5338 108.309 48.5338C107.509 48.5338 107.017 48.2508 106.451 47.4633L98.7484 36.6721H98.6377V46.6758C98.6377 47.857 97.9732 48.5338 96.8658 48.5338ZM114.954 48.3C113.785 48.3 113.096 47.5863 113.096 46.3558V32.4762C113.096 31.258 113.785 30.5443 114.954 30.5443H119.876C125.204 30.5443 128.341 33.7189 128.341 39.3545C128.341 44.99 125.204 48.3 119.876 48.3H114.954ZM116.812 45.2238H119.433C122.755 45.2238 124.551 43.2058 124.551 39.3668C124.551 35.6508 122.706 33.6082 119.433 33.6082H116.812V45.2238ZM132.599 48.3C131.43 48.3 130.741 47.5863 130.741 46.3558V32.4762C130.741 31.258 131.43 30.5443 132.599 30.5443H141.04C142.061 30.5443 142.725 31.1226 142.725 32.0824C142.725 33.0422 142.049 33.6205 141.04 33.6205H134.457V37.8902H140.72C141.643 37.8902 142.27 38.4316 142.27 39.3176C142.27 40.2035 141.655 40.7449 140.72 40.7449H134.457V45.2238H141.04C142.049 45.2238 142.725 45.8021 142.725 46.7619C142.725 47.7217 142.061 48.3 141.04 48.3H132.599ZM147.044 48.5584C145.888 48.5584 145.186 47.8447 145.186 46.6266V32.4762C145.186 31.258 145.875 30.5443 147.044 30.5443H152.458C156.544 30.5443 158.881 32.6976 158.881 36.2045C158.881 38.4193 157.786 40.3142 155.83 41.151L158.389 45.5807C158.697 46.1098 158.783 46.4297 158.783 46.8603C158.783 47.8447 157.996 48.5584 156.913 48.5584C156.027 48.5584 155.621 48.2385 155.018 47.1557L152.065 41.8031H148.902V46.6266C148.902 47.8447 148.213 48.5584 147.044 48.5584ZM148.902 39.1084H152.102C153.972 39.1084 155.067 38.0379 155.067 36.2783C155.067 34.5557 153.91 33.4482 152.065 33.4482H148.902V39.1084Z" fill="#0E0E14"/>
<defs>
<clipPath id="clip0_112_2056">
<rect width="56" height="56" fill="white"/>
</clipPath>
<clipPath id="clip1_112_2056">
<rect width="34" height="17" fill="white" transform="translate(11 28)"/>
</clipPath>
</defs>
</svg>
